<svg viewBox="0 0 800 600" xmlns="http://www.w3.org/2000/svg">
  <!-- 背景 -->
  <rect width="800" height="600" fill="#f5f7fa"/>
  
  <!-- 页面标题 -->
  <text x="20" y="30" fill="#303133" font-size="20" font-weight="bold">数据分析 / 步骤1: 文件上传</text>
  
  <!-- 三个主要功能区卡片 -->
  <!-- 文件上传卡片 -->
  <rect x="20" y="50" width="240" height="180" fill="#ffffff" stroke="#e4e7ed" stroke-width="1" rx="6"/>
  <text x="30" y="75" fill="#303133" font-size="16" font-weight="bold">📁 上传文件</text>
  
  <!-- 拖拽上传区域 -->
  <rect x="30" y="85" width="220" height="120" fill="#fafbfc" stroke="#d3d4d6" stroke-width="2" stroke-dasharray="8,4" rx="4"/>
  <text x="140" y="135" fill="#909399" font-size="14" text-anchor="middle">拖拽文件到此处</text>
  <text x="140" y="155" fill="#c0c4cc" font-size="12" text-anchor="middle">或点击选择文件</text>
  <text x="140" y="175" fill="#c0c4cc" font-size="10" text-anchor="middle">支持CSV格式，最大100MB</text>
  
  <!-- 浏览按钮 -->
  <rect x="30" y="210" width="80" height="30" fill="#409EFF" rx="4"/>
  <text x="70" y="230" fill="white" font-size="12" text-anchor="middle">浏览文件</text>
  
  <!-- 分析参数卡片 -->
  <rect x="280" y="50" width="240" height="180" fill="#ffffff" stroke="#e4e7ed" stroke-width="1" rx="6"/>
  <text x="290" y="75" fill="#303133" font-size="16" font-weight="bold">⚙️ 分析参数</text>
  
  <!-- 参数输入框 -->
  <text x="290" y="100" fill="#606266" font-size="12">目标力值 (N):</text>
  <rect x="290" y="105" width="220" height="25" fill="#ffffff" stroke="#d3d4d6" stroke-width="1" rx="2"/>
  <text x="295" y="122" fill="#909399" font-size="11">5, 25, 50</text>
  
  <text x="290" y="145" fill="#606266" font-size="12">绝对容差:</text>
  <rect x="290" y="150" width="100" height="25" fill="#ffffff" stroke="#d3d4d6" stroke-width="1" rx="2"/>
  <text x="295" y="167" fill="#909399" font-size="11">0.5</text>
  
  <text x="405" y="145" fill="#606266" font-size="12">百分比容差:</text>
  <rect x="405" y="150" width="100" height="25" fill="#ffffff" stroke="#d3d4d6" stroke-width="1" rx="2"/>
  <text x="410" y="167" fill="#909399" font-size="11">5%</text>
  
  <!-- 参数验证状态 -->
  <circle cx="295" cy="195" r="3" fill="#67C23A"/>
  <text x="305" y="200" fill="#67C23A" font-size="11">参数验证通过</text>
  
  <rect x="290" y="210" width="100" height="30" fill="#e4e7ed" rx="4"/>
  <text x="340" y="230" fill="#909399" font-size="12" text-anchor="middle">保存模板</text>
  
  <!-- 执行分析卡片 -->
  <rect x="540" y="50" width="240" height="180" fill="#ffffff" stroke="#e4e7ed" stroke-width="1" rx="6"/>
  <text x="550" y="75" fill="#303133" font-size="16" font-weight="bold">🚀 执行分析</text>
  
  <!-- 分析按钮 -->
  <rect x="550" y="90" width="220" height="50" fill="#67C23A" rx="6"/>
  <text x="660" y="125" fill="white" font-size="16" font-weight="bold" text-anchor="middle">开始分析</text>
  
  <!-- 状态信息 -->
  <text x="550" y="165" fill="#606266" font-size="12">状态: 等待开始</text>
  <text x="550" y="185" fill="#909399" font-size="11">预计分析时间: 2-3分钟</text>
  <text x="550" y="200" fill="#909399" font-size="11">将生成35个专业图表</text>
  
  <!-- 进度条(隐藏状态) -->
  <rect x="550" y="210" width="220" height="8" fill="#f0f0f0" rx="4"/>
  <text x="550" y="230" fill="#c0c4cc" font-size="10">进度将在分析开始后显示</text>
  
  <!-- 文件预览区域 -->
  <rect x="20" y="250" width="760" height="330" fill="#ffffff" stroke="#e4e7ed" stroke-width="1" rx="6"/>
  <text x="30" y="275" fill="#303133" font-size="16" font-weight="bold">📋 文件预览</text>
  
  <!-- 文件信息 -->
  <rect x="30" y="285" width="740" height="40" fill="#f9f9f9" stroke="#e4e7ed" stroke-width="1"/>
  <text x="40" y="305" fill="#303133" font-size="14">文件名: demo_data.csv</text>
  <text x="300" y="305" fill="#606266" font-size="12">大小: 2.1KB</text>
  <text x="450" y="305" fill="#606266" font-size="12">数据点: 20行</text>
  <text x="600" y="305" fill="#67C23A" font-size="12">✓ 格式验证通过</text>
  
  <!-- 数据表格预览 -->
  <text x="40" y="345" fill="#303133" font-size="14">数据预览 (前10行):</text>
  
  <!-- 表格头部 -->
  <rect x="30" y="355" width="740" height="25" fill="#f5f7fa" stroke="#e4e7ed" stroke-width="1"/>
  <text x="50" y="372" fill="#303133" font-size="12" font-weight="bold">ID</text>
  <text x="150" y="372" fill="#303133" font-size="12" font-weight="bold">Force_Value</text>
  <text x="280" y="372" fill="#303133" font-size="12" font-weight="bold">X_Position</text>
  <text x="410" y="372" fill="#303133" font-size="12" font-weight="bold">Y_Position</text>
  <text x="540" y="372" fill="#303133" font-size="12" font-weight="bold">Target_Force</text>
  <text x="670" y="372" fill="#303133" font-size="12" font-weight="bold">Status</text>
  
  <!-- 数据行 -->
  <rect x="30" y="380" width="740" height="20" fill="#ffffff" stroke="#e4e7ed" stroke-width="1"/>
  <text x="50" y="395" fill="#606266" font-size="11">1</text>
  <text x="150" y="395" fill="#606266" font-size="11">4.95</text>
  <text x="280" y="395" fill="#606266" font-size="11">10.2</text>
  <text x="410" y="395" fill="#606266" font-size="11">15.3</text>
  <text x="540" y="395" fill="#606266" font-size="11">5.0</text>
  <text x="670" y="395" fill="#67C23A" font-size="11">正常</text>
  
  <rect x="30" y="400" width="740" height="20" fill="#fafbfc" stroke="#e4e7ed" stroke-width="1"/>
  <text x="50" y="415" fill="#606266" font-size="11">2</text>
  <text x="150" y="415" fill="#606266" font-size="11">25.12</text>
  <text x="280" y="415" fill="#606266" font-size="11">20.1</text>
  <text x="410" y="415" fill="#606266" font-size="11">25.4</text>
  <text x="540" y="415" fill="#606266" font-size="11">25.0</text>
  <text x="670" y="415" fill="#67C23A" font-size="11">正常</text>
  
  <rect x="30" y="420" width="740" height="20" fill="#ffffff" stroke="#e4e7ed" stroke-width="1"/>
  <text x="50" y="435" fill="#606266" font-size="11">3</text>
  <text x="150" y="435" fill="#606266" font-size="11">49.78</text>
  <text x="280" y="435" fill="#606266" font-size="11">30.5</text>
  <text x="410" y="435" fill="#606266" font-size="11">35.2</text>
  <text x="540" y="435" fill="#606266" font-size="11">50.0</text>
  <text x="670" y="435" fill="#67C23A" font-size="11">正常</text>
  
  <!-- 省略号 -->
  <text x="400" y="455" fill="#c0c4cc" font-size="12" text-anchor="middle">...</text>
  <text x="400" y="475" fill="#909399" font-size="11" text-anchor="middle">显示前10行，完整数据包含20行</text>
  
  <!-- 数据统计信息 -->
  <rect x="30" y="500" width="740" height="60" fill="#f9f9f9" stroke="#e4e7ed" stroke-width="1"/>
  <text x="40" y="520" fill="#303133" font-size="12" font-weight="bold">数据统计:</text>
  <text x="40" y="540" fill="#606266" font-size="11">• 总数据点: 20个</text>
  <text x="200" y="540" fill="#606266" font-size="11">• 目标力值类型: 3种 (5N, 25N, 50N)</text>
  <text x="450" y="540" fill="#606266" font-size="11">• 数据完整性: 100%</text>
  <text x="40" y="555" fill="#606266" font-size="11">• 异常值: 0个</text>
  <text x="200" y="555" fill="#606266" font-size="11">• 数据范围: 4.95 - 49.78 N</text>
  <text x="450" y="555" fill="#67C23A" font-size="11">• 质量评估: 优秀</text>
</svg> 