<svg viewBox="0 0 800 600" xmlns="http://www.w3.org/2000/svg">
  <!-- 背景 -->
  <rect width="800" height="600" fill="#f5f7fa"/>
  
  <!-- 页面标题 -->
  <text x="20" y="30" fill="#303133" font-size="20" font-weight="bold">任务监控 / 任务ID: 4514bcbf-1459-409c-8e17-710e6b73ab31</text>
  
  <!-- 任务状态卡片 -->
  <rect x="20" y="50" width="760" height="200" fill="#ffffff" stroke="#e4e7ed" stroke-width="1" rx="6"/>
  
  <!-- 状态标题 -->
  <text x="30" y="75" fill="#303133" font-size="18" font-weight="bold">📊 实时任务状态</text>
  
  <!-- 状态指示器 -->
  <circle cx="60" cy="100" r="8" fill="#E6A23C"/>
  <text x="80" y="107" fill="#E6A23C" font-size="16" font-weight="bold">运行中</text>
  
  <!-- 任务信息网格 -->
  <text x="250" y="107" fill="#303133" font-size="14" font-weight="bold">开始时间:</text>
  <text x="350" y="107" fill="#606266" font-size="14">2025-01-09 09:22:15</text>
  
  <text x="500" y="107" fill="#303133" font-size="14" font-weight="bold">运行时长:</text>
  <text x="600" y="107" fill="#606266" font-size="14">00:02:34</text>
  
  <text x="30" y="135" fill="#303133" font-size="14" font-weight="bold">预计剩余:</text>
  <text x="130" y="135" fill="#E6A23C" font-size="14">00:00:26</text>
  
  <text x="250" y="135" fill="#303133" font-size="14" font-weight="bold">数据文件:</text>
  <text x="350" y="135" fill="#606266" font-size="14">demo_data.csv (20个数据点)</text>
  
  <!-- 进度条 -->
  <text x="30" y="165" fill="#303133" font-size="14" font-weight="bold">总体进度:</text>
  <rect x="130" y="155" width="400" height="16" fill="#f0f0f0" rx="8"/>
  <rect x="130" y="155" width="340" height="16" fill="#E6A23C" rx="8"/>
  <text x="550" y="167" fill="#E6A23C" font-size="14" font-weight="bold">85%</text>
  
  <!-- 当前阶段 -->
  <text x="30" y="195" fill="#303133" font-size="14" font-weight="bold">当前阶段:</text>
  <text x="130" y="195" fill="#E6A23C" font-size="14">R统计分析 - 生成控制图</text>
  
  <!-- 详细进度 -->
  <text x="30" y="215" fill="#909399" font-size="12">图表生成进度: 23/35 完成</text>
  <text x="250" y="215" fill="#909399" font-size="12">当前: 专业质量分析图表</text>
  
  <!-- 任务日志区域 -->
  <rect x="20" y="270" width="760" height="320" fill="#ffffff" stroke="#e4e7ed" stroke-width="1" rx="6"/>
  <text x="30" y="295" fill="#303133" font-size="18" font-weight="bold">📋 任务执行日志</text>
  
  <!-- 日志工具栏 -->
  <rect x="30" y="305" width="740" height="30" fill="#f9f9f9" stroke="#e4e7ed" stroke-width="1"/>
  <circle cx="45" cy="320" r="4" fill="#67C23A"/>
  <text x="55" y="325" fill="#606266" font-size="12">实时更新</text>
  
  <rect x="650" y="310" width="80" height="20" fill="#e4e7ed" rx="4"/>
  <text x="690" y="323" fill="#909399" font-size="11" text-anchor="middle">导出日志</text>
  
  <!-- 日志内容 -->
  <rect x="30" y="335" width="740" height="245" fill="#fafbfc" stroke="#e4e7ed" stroke-width="1"/>
  
  <!-- 日志条目 -->
  <text x="40" y="355" fill="#909399" font-size="11">09:22:15</text>
  <text x="120" y="355" fill="#67C23A" font-size="11">✓</text>
  <text x="140" y="355" fill="#303133" font-size="11">任务创建成功</text>
  
  <text x="40" y="375" fill="#909399" font-size="11">09:22:16</text>
  <text x="120" y="375" fill="#67C23A" font-size="11">✓</text>
  <text x="140" y="375" fill="#303133" font-size="11">开始读取数据文件</text>
  
  <text x="40" y="395" fill="#909399" font-size="11">09:22:18</text>
  <text x="120" y="395" fill="#67C23A" font-size="11">✓</text>
  <text x="140" y="395" fill="#303133" font-size="11">数据验证通过 (20个数据点，3种目标力值)</text>
  
  <text x="40" y="415" fill="#909399" font-size="11">09:22:20</text>
  <text x="120" y="415" fill="#67C23A" font-size="11">✓</text>
  <text x="140" y="415" fill="#303133" font-size="11">开始R统计分析</text>
  
  <text x="40" y="435" fill="#909399" font-size="11">09:23:45</text>
  <text x="120" y="435" fill="#67C23A" font-size="11">✓</text>
  <text x="140" y="435" fill="#303133" font-size="11">数据预处理完成</text>
  
  <text x="40" y="455" fill="#909399" font-size="11">09:24:10</text>
  <text x="120" y="455" fill="#67C23A" font-size="11">✓</text>
  <text x="140" y="455" fill="#303133" font-size="11">生成基础分析图表完成 (8/35)</text>
  
  <text x="40" y="475" fill="#909399" font-size="11">09:24:35</text>
  <text x="120" y="475" fill="#67C23A" font-size="11">✓</text>
  <text x="140" y="475" fill="#303133" font-size="11">生成控制图系列完成 (15/35)</text>
  
  <text x="40" y="495" fill="#909399" font-size="11">09:24:52</text>
  <text x="120" y="495" fill="#E6A23C" font-size="11">◐</text>
  <text x="140" y="495" fill="#E6A23C" font-size="11">正在生成专业质量图表 (23/35)...</text>
  
  <text x="40" y="515" fill="#909399" font-size="11">09:24:58</text>
  <text x="120" y="515" fill="#E6A23C" font-size="11">◐</text>
  <text x="140" y="515" fill="#E6A23C" font-size="11">当前: 生成过程能力分析图</text>
  
  <text x="40" y="535" fill="#909399" font-size="11">09:25:01</text>
  <text x="120" y="535" fill="#E6A23C" font-size="11">◐</text>
  <text x="140" y="535" fill="#E6A23C" font-size="11">当前: 生成质量控制图表</text>
  
  <!-- 预计完成 -->
  <text x="40" y="560" fill="#c0c4cc" font-size="11">预计 09:25:15 - 完成多维分析图表生成</text>
  <text x="40" y="575" fill="#c0c4cc" font-size="11">预计 09:25:20 - 所有分析完成，准备结果展示</text>
  
  <!-- 操作按钮 -->
  <rect x="680" y="40" width="80" height="30" fill="#F56C6C" rx="4"/>
  <text x="720" y="60" fill="white" font-size="12" text-anchor="middle">停止任务</text>
  
  <rect x="590" y="40" width="80" height="30" fill="#909399" rx="4"/>
  <text x="630" y="60" fill="white" font-size="12" text-anchor="middle">查看详情</text>
</svg> 