<svg viewBox="0 0 800 600" xmlns="http://www.w3.org/2000/svg">
  <!-- 背景 -->
  <rect width="800" height="600" fill="#f5f7fa"/>
  
  <!-- 页面标题 -->
  <text x="20" y="30" fill="#303133" font-size="20" font-weight="bold">分析结果 / demo_data.csv</text>
  
  <!-- 完成状态和操作区 -->
  <rect x="500" y="10" width="280" height="35" fill="#ffffff" stroke="#e4e7ed" stroke-width="1" rx="4"/>
  <circle cx="520" cy="27" r="6" fill="#67C23A"/>
  <text x="535" y="32" fill="#67C23A" font-size="14" font-weight="bold">分析完成</text>
  
  <!-- 下载按钮组 -->
  <rect x="620" y="15" width="75" height="25" fill="#409EFF" rx="4"/>
  <text x="657" y="30" fill="white" font-size="11" text-anchor="middle">Word报告</text>
  
  <rect x="705" y="15" width="65" height="25" fill="#67C23A" rx="4"/>
  <text x="737" y="30" fill="white" font-size="11" text-anchor="middle">导出数据</text>
  
  <!-- 结果摘要卡片 -->
  <rect x="20" y="50" width="760" height="100" fill="#ffffff" stroke="#e4e7ed" stroke-width="1" rx="6"/>
  <text x="30" y="75" fill="#303133" font-size="18" font-weight="bold">📊 分析摘要</text>
  
  <!-- 关键指标卡片组 -->
  <rect x="30" y="85" width="120" height="55" fill="#f0f9ff" stroke="#409EFF" stroke-width="1" rx="4"/>
  <text x="90" y="105" fill="#409EFF" font-size="16" font-weight="bold" text-anchor="middle">90.0%</text>
  <text x="90" y="125" fill="#606266" font-size="12" text-anchor="middle">成功率</text>
  
  <rect x="170" y="85" width="120" height="55" fill="#f0f9ff" stroke="#409EFF" stroke-width="1" rx="4"/>
  <text x="230" y="105" fill="#409EFF" font-size="16" font-weight="bold" text-anchor="middle">20</text>
  <text x="230" y="125" fill="#606266" font-size="12" text-anchor="middle">数据点数</text>
  
  <rect x="310" y="85" width="120" height="55" fill="#f0f9ff" stroke="#409EFF" stroke-width="1" rx="4"/>
  <text x="370" y="105" fill="#409EFF" font-size="16" font-weight="bold" text-anchor="middle">2.892</text>
  <text x="370" y="125" fill="#606266" font-size="12" text-anchor="middle">平均Cp值</text>
  
  <rect x="450" y="85" width="120" height="55" fill="#f0f9ff" stroke="#67C23A" stroke-width="1" rx="4"/>
  <text x="510" y="105" fill="#67C23A" font-size="16" font-weight="bold" text-anchor="middle">优秀</text>
  <text x="510" y="125" fill="#606266" font-size="12" text-anchor="middle">质量等级</text>
  
  <rect x="590" y="85" width="120" height="55" fill="#f0f9ff" stroke="#606266" stroke-width="1" rx="4"/>
  <text x="650" y="105" fill="#606266" font-size="16" font-weight="bold" text-anchor="middle">2分27秒</text>
  <text x="650" y="125" fill="#606266" font-size="12" text-anchor="middle">分析时长</text>
  
  <!-- DeepSeek AI分析区域 -->
  <rect x="20" y="170" width="760" height="160" fill="#ffffff" stroke="#e4e7ed" stroke-width="1" rx="6"/>
  <text x="30" y="195" fill="#303133" font-size="18" font-weight="bold">🤖 DeepSeek AI智能分析</text>
  
  <!-- AI生成按钮 -->
  <rect x="620" y="175" width="120" height="30" fill="#722ED1" rx="4"/>
  <text x="680" y="195" fill="white" font-size="12" text-anchor="middle">生成AI分析</text>
  
  <!-- AI分析内容 -->
  <rect x="30" y="210" width="740" height="110" fill="#f9f9f9" stroke="#e4e7ed" stroke-width="1" rx="4"/>
  <text x="40" y="230" fill="#303133" font-size="14" font-weight="bold">智能分析报告:</text>
  
  <text x="40" y="250" fill="#606266" font-size="12">根据R统计分析结果，该压力测试数据表现出以下特征：</text>
  <text x="40" y="265" fill="#606266" font-size="12">1. 整体质量优秀：过程能力指数Cp=2.892，远超过2.0的优秀标准</text>
  <text x="40" y="280" fill="#606266" font-size="12">2. 精度控制良好：三个目标力值(5N/25N/50N)都显示良好的精度控制能力</text>
  <text x="40" y="295" fill="#606266" font-size="12">3. 过程稳定性强：控制图显示过程处于统计控制状态，无异常模式</text>
  <text x="40" y="310" fill="#67C23A" font-size="12" font-weight="bold">建议：继续保持当前工艺参数设置，定期监控关键控制点</text>
  
  <!-- 图表展示区域 -->
  <rect x="20" y="350" width="760" height="240" fill="#ffffff" stroke="#e4e7ed" stroke-width="1" rx="6"/>
  <text x="30" y="375" fill="#303133" font-size="18" font-weight="bold">📈 专业图表展示 (35张)</text>
  
  <!-- 图表分类标签 -->
  <rect x="30" y="385" width="80" height="25" fill="#409EFF" rx="4"/>
  <text x="70" y="402" fill="white" font-size="11" text-anchor="middle">基础分析</text>
  
  <rect x="120" y="385" width="60" height="25" fill="#f0f0f0" rx="4"/>
  <text x="150" y="402" fill="#606266" font-size="11" text-anchor="middle">控制图</text>
  
  <rect x="190" y="385" width="80" height="25" fill="#f0f0f0" rx="4"/>
  <text x="230" y="402" fill="#606266" font-size="11" text-anchor="middle">专业质量</text>
  
  <rect x="280" y="385" width="70" height="25" fill="#f0f0f0" rx="4"/>
  <text x="315" y="402" fill="#606266" font-size="11" text-anchor="middle">多维分析</text>
  
  <!-- 查看所有图表按钮 -->
  <rect x="600" y="385" width="140" height="25" fill="#E6A23C" rx="4"/>
  <text x="670" y="402" fill="white" font-size="11" text-anchor="middle">查看所有35张图表</text>
  
  <!-- 图表网格预览 -->
  <!-- 第一行图表 -->
  <rect x="30" y="420" width="110" height="80" fill="#fafbfc" stroke="#e4e7ed" stroke-width="1" rx="4"/>
  <text x="85" y="450" fill="#c0c4cc" font-size="10" text-anchor="middle">时间序列图</text>
  <text x="85" y="465" fill="#c0c4cc" font-size="9" text-anchor="middle">[图表预览]</text>
  <rect x="85" y="475" width="50" height="15" fill="#409EFF" rx="2"/>
  <text x="110" y="485" fill="white" font-size="8" text-anchor="middle">查看大图</text>
  
  <rect x="150" y="420" width="110" height="80" fill="#fafbfc" stroke="#e4e7ed" stroke-width="1" rx="4"/>
  <text x="205" y="450" fill="#c0c4cc" font-size="10" text-anchor="middle">分布直方图</text>
  <text x="205" y="465" fill="#c0c4cc" font-size="9" text-anchor="middle">[图表预览]</text>
  <rect x="180" y="475" width="50" height="15" fill="#409EFF" rx="2"/>
  <text x="205" y="485" fill="white" font-size="8" text-anchor="middle">查看大图</text>
  
  <rect x="270" y="420" width="110" height="80" fill="#fafbfc" stroke="#e4e7ed" stroke-width="1" rx="4"/>
  <text x="325" y="450" fill="#c0c4cc" font-size="10" text-anchor="middle">箱线图</text>
  <text x="325" y="465" fill="#c0c4cc" font-size="9" text-anchor="middle">[图表预览]</text>
  <rect x="300" y="475" width="50" height="15" fill="#409EFF" rx="2"/>
  <text x="325" y="485" fill="white" font-size="8" text-anchor="middle">查看大图</text>
  
  <rect x="390" y="420" width="110" height="80" fill="#fafbfc" stroke="#e4e7ed" stroke-width="1" rx="4"/>
  <text x="445" y="450" fill="#c0c4cc" font-size="10" text-anchor="middle">偏差分析</text>
  <text x="445" y="465" fill="#c0c4cc" font-size="9" text-anchor="middle">[图表预览]</text>
  <rect x="420" y="475" width="50" height="15" fill="#409EFF" rx="2"/>
  <text x="445" y="485" fill="white" font-size="8" text-anchor="middle">查看大图</text>
  
  <rect x="510" y="420" width="110" height="80" fill="#fafbfc" stroke="#e4e7ed" stroke-width="1" rx="4"/>
  <text x="565" y="450" fill="#c0c4cc" font-size="10" text-anchor="middle">3D散点图</text>
  <text x="565" y="465" fill="#c0c4cc" font-size="9" text-anchor="middle">[图表预览]</text>
  <rect x="540" y="475" width="50" height="15" fill="#409EFF" rx="2"/>
  <text x="565" y="485" fill="white" font-size="8" text-anchor="middle">查看大图</text>
  
  <rect x="630" y="420" width="110" height="80" fill="#fafbfc" stroke="#e4e7ed" stroke-width="1" rx="4"/>
  <text x="685" y="450" fill="#c0c4cc" font-size="10" text-anchor="middle">散点图矩阵</text>
  <text x="685" y="465" fill="#c0c4cc" font-size="9" text-anchor="middle">[图表预览]</text>
  <rect x="660" y="475" width="50" height="15" fill="#409EFF" rx="2"/>
  <text x="685" y="485" fill="white" font-size="8" text-anchor="middle">查看大图</text>
  
  <!-- 第二行图表 -->
  <rect x="30" y="510" width="110" height="70" fill="#fafbfc" stroke="#e4e7ed" stroke-width="1" rx="4"/>
  <text x="85" y="535" fill="#c0c4cc" font-size="10" text-anchor="middle">控制图</text>
  <text x="85" y="550" fill="#c0c4cc" font-size="9" text-anchor="middle">[图表预览]</text>
  <rect x="85" y="560" width="50" height="15" fill="#E6A23C" rx="2"/>
  <text x="110" y="570" fill="white" font-size="8" text-anchor="middle">查看大图</text>
  
  <rect x="150" y="510" width="110" height="70" fill="#fafbfc" stroke="#e4e7ed" stroke-width="1" rx="4"/>
  <text x="205" y="535" fill="#c0c4cc" font-size="10" text-anchor="middle">过程能力</text>
  <text x="205" y="550" fill="#c0c4cc" font-size="9" text-anchor="middle">[图表预览]</text>
  <rect x="180" y="560" width="50" height="15" fill="#67C23A" rx="2"/>
  <text x="205" y="570" fill="white" font-size="8" text-anchor="middle">查看大图</text>
  
  <!-- 省略号指示 -->
  <text x="320" y="550" fill="#c0c4cc" font-size="24" text-anchor="middle">...</text>
  <text x="400" y="550" fill="#909399" font-size="12" text-anchor="middle">还有27张专业图表</text>
  <text x="400" y="565" fill="#909399" font-size="11" text-anchor="middle">点击"查看所有35张图表"浏览完整内容</text>
</svg> 