<svg viewBox="0 0 800 600" xmlns="http://www.w3.org/2000/svg">
  <!-- 背景 -->
  <rect width="800" height="600" fill="#f5f7fa"/>
  
  <!-- 页面标题 -->
  <text x="20" y="30" fill="#303133" font-size="20" font-weight="bold">任务管理</text>
  
  <!-- 工具栏 -->
  <rect x="20" y="50" width="760" height="50" fill="#ffffff" stroke="#e4e7ed" stroke-width="1" rx="6"/>
  
  <!-- 操作按钮组 -->
  <rect x="30" y="65" width="80" height="30" fill="#67C23A" rx="4"/>
  <text x="70" y="85" fill="white" font-size="12" text-anchor="middle">新建任务</text>
  
  <rect x="120" y="65" width="80" height="30" fill="#F56C6C" rx="4"/>
  <text x="160" y="85" fill="white" font-size="12" text-anchor="middle">批量删除</text>
  
  <rect x="210" y="65" width="60" height="30" fill="#909399" rx="4"/>
  <text x="240" y="85" fill="white" font-size="12" text-anchor="middle">刷新</text>
  
  <!-- 搜索框 -->
  <rect x="580" y="65" width="160" height="30" fill="#ffffff" stroke="#d3d4d6" stroke-width="1" rx="4"/>
  <text x="590" y="85" fill="#c0c4cc" font-size="12">🔍 搜索任务ID或文件名</text>
  
  <!-- 统计信息 -->
  <text x="30" y="125" fill="#909399" font-size="12">共 3 个任务 | 运行中: 1个 | 已完成: 1个 | 失败: 1个</text>
  
  <!-- 任务列表表格 -->
  <rect x="20" y="140" width="760" height="440" fill="#ffffff" stroke="#e4e7ed" stroke-width="1" rx="6"/>
  
  <!-- 表格头部 -->
  <rect x="20" y="140" width="760" height="40" fill="#f5f7fa" stroke="#e4e7ed" stroke-width="1" rx="6 6 0 0"/>
  
  <!-- 复选框 -->
  <rect x="35" y="155" width="15" height="15" fill="#ffffff" stroke="#d3d4d6" stroke-width="1" rx="2"/>
  
  <!-- 表头文字 -->
  <text x="70" y="167" fill="#303133" font-size="12" font-weight="bold">任务ID</text>
  <text x="220" y="167" fill="#303133" font-size="12" font-weight="bold">文件名</text>
  <text x="350" y="167" fill="#303133" font-size="12" font-weight="bold">状态</text>
  <text x="450" y="167" fill="#303133" font-size="12" font-weight="bold">开始时间</text>
  <text x="580" y="167" fill="#303133" font-size="12" font-weight="bold">进度</text>
  <text x="680" y="167" fill="#303133" font-size="12" font-weight="bold">操作</text>
  
  <!-- 任务行1 - 完成状态 -->
  <rect x="20" y="180" width="760" height="50" fill="#ffffff" stroke="#e4e7ed" stroke-width="1"/>
  
  <rect x="35" y="195" width="15" height="15" fill="#ffffff" stroke="#d3d4d6" stroke-width="1" rx="2"/>
  
  <text x="70" y="207" fill="#303133" font-size="11">4514bcbf...</text>
  <text x="220" y="207" fill="#606266" font-size="11">demo_data.csv</text>
  
  <!-- 状态徽章 -->
  <rect x="350" y="195" width="60" height="20" fill="#f0f9ff" stroke="#67C23A" stroke-width="1" rx="10"/>
  <circle cx="365" cy="205" r="3" fill="#67C23A"/>
  <text x="375" y="208" fill="#67C23A" font-size="10">完成</text>
  
  <text x="450" y="207" fill="#606266" font-size="11">01-09 09:22</text>
  
  <!-- 进度条 -->
  <rect x="580" y="200" width="60" height="6" fill="#f0f0f0" rx="3"/>
  <rect x="580" y="200" width="60" height="6" fill="#67C23A" rx="3"/>
  <text x="650" y="207" fill="#67C23A" font-size="10">100%</text>
  
  <!-- 操作按钮 -->
  <rect x="680" y="190" width="35" height="20" fill="#409EFF" rx="3"/>
  <text x="697" y="203" fill="white" font-size="9" text-anchor="middle">查看</text>
  
  <rect x="720" y="190" width="35" height="20" fill="#F56C6C" rx="3"/>
  <text x="737" y="203" fill="white" font-size="9" text-anchor="middle">删除</text>
  
  <!-- 任务行2 - 运行中状态 -->
  <rect x="20" y="230" width="760" height="50" fill="#fafbfc" stroke="#e4e7ed" stroke-width="1"/>
  
  <rect x="35" y="245" width="15" height="15" fill="#ffffff" stroke="#d3d4d6" stroke-width="1" rx="2"/>
  
  <text x="70" y="257" fill="#303133" font-size="11">7891abcd...</text>
  <text x="220" y="257" fill="#606266" font-size="11">test_data.csv</text>
  
  <!-- 运行中状态徽章 -->
  <rect x="350" y="245" width="60" height="20" fill="#fdf6ec" stroke="#E6A23C" stroke-width="1" rx="10"/>
  <circle cx="365" cy="255" r="3" fill="#E6A23C"/>
  <text x="375" y="258" fill="#E6A23C" font-size="10">运行中</text>
  
  <text x="450" y="257" fill="#606266" font-size="11">01-09 10:15</text>
  
  <!-- 进度条 - 进行中 -->
  <rect x="580" y="250" width="60" height="6" fill="#f0f0f0" rx="3"/>
  <rect x="580" y="250" width="42" height="6" fill="#E6A23C" rx="3"/>
  <text x="650" y="257" fill="#E6A23C" font-size="10">70%</text>
  
  <!-- 操作按钮 -->
  <rect x="680" y="240" width="35" height="20" fill="#409EFF" rx="3"/>
  <text x="697" y="253" fill="white" font-size="9" text-anchor="middle">查看</text>
  
  <rect x="720" y="240" width="35" height="20" fill="#E6A23C" rx="3"/>
  <text x="737" y="253" fill="white" font-size="9" text-anchor="middle">停止</text>
  
  <!-- 任务行3 - 失败状态 -->
  <rect x="20" y="280" width="760" height="50" fill="#ffffff" stroke="#e4e7ed" stroke-width="1"/>
  
  <rect x="35" y="295" width="15" height="15" fill="#ffffff" stroke="#d3d4d6" stroke-width="1" rx="2"/>
  
  <text x="70" y="307" fill="#303133" font-size="11">1234cdef...</text>
  <text x="220" y="307" fill="#606266" font-size="11">error_data.csv</text>
  
  <!-- 失败状态徽章 -->
  <rect x="350" y="295" width="60" height="20" fill="#fef0f0" stroke="#F56C6C" stroke-width="1" rx="10"/>
  <circle cx="365" cy="305" r="3" fill="#F56C6C"/>
  <text x="375" y="308" fill="#F56C6C" font-size="10">失败</text>
  
  <text x="450" y="307" fill="#606266" font-size="11">01-08 14:45</text>
  
  <!-- 进度条 - 失败 -->
  <rect x="580" y="300" width="60" height="6" fill="#f0f0f0" rx="3"/>
  <rect x="580" y="300" width="18" height="6" fill="#F56C6C" rx="3"/>
  <text x="650" y="307" fill="#F56C6C" font-size="10">30%</text>
  
  <!-- 操作按钮 -->
  <rect x="680" y="290" width="35" height="20" fill="#67C23A" rx="3"/>
  <text x="697" y="303" fill="white" font-size="9" text-anchor="middle">重试</text>
  
  <rect x="720" y="290" width="35" height="20" fill="#F56C6C" rx="3"/>
  <text x="737" y="303" fill="white" font-size="9" text-anchor="middle">删除</text>
  
  <!-- 错误信息展示 -->
  <rect x="70" y="315" width="680" height="25" fill="#fdf2f2" stroke="#FECACA" stroke-width="1" rx="3"/>
  <text x="80" y="330" fill="#F56C6C" font-size="10">❌ 错误: 文件格式不正确 - 缺少必需的列 'Force_Value'</text>
  
  <!-- 空行占位 -->
  <rect x="20" y="350" width="760" height="50" fill="#fafbfc" stroke="#e4e7ed" stroke-width="1"/>
  <text x="400" y="380" fill="#c0c4cc" font-size="12" text-anchor="middle">暂无更多任务</text>
  
  <!-- 分页区域 -->
  <rect x="20" y="520" width="760" height="60" fill="#ffffff" stroke="#e4e7ed" stroke-width="1" rx="0 0 6 6"/>
  
  <!-- 批量操作区域 -->
  <text x="30" y="545" fill="#909399" font-size="12">已选择 0 项</text>
  
  <rect x="150" y="535" width="80" height="25" fill="#e4e7ed" rx="4"/>
  <text x="190" y="550" fill="#909399" font-size="11" text-anchor="middle">批量删除</text>
  
  <rect x="240" y="535" width="80" height="25" fill="#e4e7ed" rx="4"/>
  <text x="280" y="550" fill="#909399" font-size="11" text-anchor="middle">批量停止</text>
  
  <!-- 分页控件 -->
  <text x="500" y="545" fill="#909399" font-size="12">第 1 页，共 1 页</text>
  
  <rect x="620" y="535" width="30" height="25" fill="#f0f0f0" stroke="#d3d4d6" stroke-width="1" rx="4"/>
  <text x="635" y="550" fill="#c0c4cc" font-size="11" text-anchor="middle">«</text>
  
  <rect x="655" y="535" width="30" height="25" fill="#409EFF" rx="4"/>
  <text x="670" y="550" fill="white" font-size="11" text-anchor="middle">1</text>
  
  <rect x="690" y="535" width="30" height="25" fill="#f0f0f0" stroke="#d3d4d6" stroke-width="1" rx="4"/>
  <text x="705" y="550" fill="#c0c4cc" font-size="11" text-anchor="middle">»</text>
  
  <!-- 每页显示数量 -->
  <text x="30" y="565" fill="#909399" font-size="11">每页显示: </text>
  <rect x="100" y="555" width="60" height="20" fill="#ffffff" stroke="#d3d4d6" stroke-width="1" rx="3"/>
  <text x="130" y="568" fill="#606266" font-size="10" text-anchor="middle">10条</text>
</svg> 