<svg viewBox="0 0 800 600" xmlns="http://www.w3.org/2000/svg">
  <!-- 背景 -->
  <rect width="800" height="600" fill="#f5f7fa"/>
  
  <!-- 页面标题 -->
  <text x="20" y="30" fill="#303133" font-size="20" font-weight="bold">系统设置</text>
  
  <!-- DeepSeek AI配置区域 -->
  <rect x="20" y="50" width="760" height="180" fill="#ffffff" stroke="#e4e7ed" stroke-width="1" rx="6"/>
  <text x="30" y="75" fill="#303133" font-size="18" font-weight="bold">🤖 DeepSeek AI配置</text>
  
  <!-- API状态指示 -->
  <rect x="30" y="90" width="740" height="40" fill="#f0f9ff" stroke="#409EFF" stroke-width="1" rx="4"/>
  <circle cx="50" cy="110" r="6" fill="#67C23A"/>
  <text x="70" y="115" fill="#67C23A" font-size="14" font-weight="bold">API状态: 连接正常</text>
  
  <text x="400" y="105" fill="#606266" font-size="12">模型版本: deepseek-chat</text>
  <text x="400" y="120" fill="#606266" font-size="12">最后检测: 2025-01-09 10:30:15</text>
  
  <!-- 测试连接按钮 -->
  <rect x="650" y="100" width="80" height="25" fill="#409EFF" rx="4"/>
  <text x="690" y="117" fill="white" font-size="11" text-anchor="middle">测试连接</text>
  
  <!-- API配置表单 -->
  <text x="30" y="155" fill="#303133" font-size="14" font-weight="bold">API配置:</text>
  
  <text x="30" y="175" fill="#606266" font-size="12">API Base URL:</text>
  <rect x="150" y="165" width="300" height="25" fill="#ffffff" stroke="#d3d4d6" stroke-width="1" rx="4"/>
  <text x="155" y="180" fill="#606266" font-size="11">https://api.deepseek.com</text>
  
  <text x="480" y="175" fill="#606266" font-size="12">API Key:</text>
  <rect x="540" y="165" width="150" height="25" fill="#ffffff" stroke="#d3d4d6" stroke-width="1" rx="4"/>
  <text x="545" y="180" fill="#c0c4cc" font-size="11">sk-********************</text>
  
  <!-- 使用统计 -->
  <text x="30" y="210" fill="#303133" font-size="14" font-weight="bold">使用统计 (本月):</text>
  <text x="150" y="210" fill="#606266" font-size="12">API调用: 25次</text>
  <text x="300" y="210" fill="#606266" font-size="12">成功率: 100%</text>
  <text x="450" y="210" fill="#606266" font-size="12">平均响应时间: 2.3秒</text>
  
  <!-- 分析参数默认配置区域 -->
  <rect x="20" y="250" width="760" height="200" fill="#ffffff" stroke="#e4e7ed" stroke-width="1" rx="6"/>
  <text x="30" y="275" fill="#303133" font-size="18" font-weight="bold">⚙️ 分析参数默认配置</text>
  
  <!-- 参数配置表单 -->
  <text x="30" y="305" fill="#606266" font-size="12">默认目标力值 (N):</text>
  <rect x="180" y="295" width="200" height="25" fill="#ffffff" stroke="#d3d4d6" stroke-width="1" rx="4"/>
  <text x="185" y="310" fill="#606266" font-size="11">5, 25, 50</text>
  
  <text x="420" y="305" fill="#606266" font-size="12">常用配置:</text>
  <rect x="500" y="295" width="120" height="25" fill="#f0f0f0" stroke="#d3d4d6" stroke-width="1" rx="4"/>
  <text x="560" y="310" fill="#606266" font-size="11" text-anchor="middle">标准配置</text>
  
  <text x="30" y="340" fill="#606266" font-size="12">默认绝对容差:</text>
  <rect x="180" y="330" width="100" height="25" fill="#ffffff" stroke="#d3d4d6" stroke-width="1" rx="4"/>
  <text x="185" y="345" fill="#606266" font-size="11">0.5</text>
  
  <text x="320" y="340" fill="#606266" font-size="12">默认百分比容差:</text>
  <rect x="480" y="330" width="100" height="25" fill="#ffffff" stroke="#d3d4d6" stroke-width="1" rx="4"/>
  <text x="485" y="345" fill="#606266" font-size="11">5%</text>
  
  <!-- 高级设置 -->
  <text x="30" y="375" fill="#606266" font-size="12">分析超时时间:</text>
  <rect x="180" y="365" width="100" height="25" fill="#ffffff" stroke="#d3d4d6" stroke-width="1" rx="4"/>
  <text x="185" y="380" fill="#606266" font-size="11">300秒</text>
  
  <text x="320" y="375" fill="#606266" font-size="12">最大文件大小:</text>
  <rect x="480" y="365" width="100" height="25" fill="#ffffff" stroke="#d3d4d6" stroke-width="1" rx="4"/>
  <text x="485" y="380" fill="#606266" font-size="11">100MB</text>
  
  <!-- 图表生成设置 -->
  <text x="30" y="410" fill="#606266" font-size="12">图表生成质量:</text>
  <rect x="180" y="400" width="120" height="25" fill="#ffffff" stroke="#d3d4d6" stroke-width="1" rx="4"/>
  <text x="240" y="415" fill="#606266" font-size="11" text-anchor="middle">高质量 (PNG)</text>
  
  <text x="330" y="410" fill="#606266" font-size="12">图表分辨率:</text>
  <rect x="430" y="400" width="100" height="25" fill="#ffffff" stroke="#d3d4d6" stroke-width="1" rx="4"/>
  <text x="480" y="415" fill="#606266" font-size="11" text-anchor="middle">1200x800</text>
  
  <!-- 保存按钮 -->
  <rect x="550" y="400" width="80" height="35" fill="#67C23A" rx="4"/>
  <text x="590" y="423" fill="white" font-size="12" text-anchor="middle">保存配置</text>
  
  <!-- 系统信息区域 -->
  <rect x="20" y="470" width="370" height="120" fill="#ffffff" stroke="#e4e7ed" stroke-width="1" rx="6"/>
  <text x="30" y="495" fill="#303133" font-size="18" font-weight="bold">📊 系统信息</text>
  
  <text x="30" y="520" fill="#606266" font-size="12">系统版本: v2.0.0</text>
  <text x="200" y="520" fill="#606266" font-size="12">构建时间: 2025-01-09</text>
  
  <text x="30" y="540" fill="#606266" font-size="12">后端服务: FastAPI</text>
  <text x="200" y="540" fill="#606266" font-size="12">R版本: 4.3.2</text>
  
  <text x="30" y="560" fill="#606266" font-size="12">数据库: SQLite</text>
  <text x="200" y="560" fill="#606266" font-size="12">运行时间: 5天12小时</text>
  
  <text x="30" y="580" fill="#606266" font-size="12">存储使用: 2.3GB / 50GB</text>
  
  <!-- 系统操作区域 -->
  <rect x="410" y="470" width="370" height="120" fill="#ffffff" stroke="#e4e7ed" stroke-width="1" rx="6"/>
  <text x="420" y="495" fill="#303133" font-size="18" font-weight="bold">🔧 系统操作</text>
  
  <!-- 操作按钮组 -->
  <rect x="420" y="510" width="80" height="30" fill="#409EFF" rx="4"/>
  <text x="460" y="530" fill="white" font-size="11" text-anchor="middle">清理缓存</text>
  
  <rect x="510" y="510" width="80" height="30" fill="#E6A23C" rx="4"/>
  <text x="550" y="530" fill="white" font-size="11" text-anchor="middle">备份数据</text>
  
  <rect x="600" y="510" width="80" height="30" fill="#67C23A" rx="4"/>
  <text x="640" y="530" fill="white" font-size="11" text-anchor="middle">导出日志</text>
  
  <rect x="690" y="510" width="80" height="30" fill="#909399" rx="4"/>
  <text x="730" y="530" fill="white" font-size="11" text-anchor="middle">重启服务</text>
  
  <!-- 健康状态检查 -->
  <text x="420" y="565" fill="#303133" font-size="14" font-weight="bold">健康状态检查:</text>
  
  <circle cx="440" cy="580" r="4" fill="#67C23A"/>
  <text x="450" y="585" fill="#67C23A" font-size="11">API服务</text>
  
  <circle cx="520" cy="580" r="4" fill="#67C23A"/>
  <text x="530" y="585" fill="#67C23A" font-size="11">R引擎</text>
  
  <circle cx="600" cy="580" r="4" fill="#67C23A"/>
  <text x="610" y="585" fill="#67C23A" font-size="11">数据库</text>
  
  <circle cx="680" cy="580" r="4" fill="#67C23A"/>
  <text x="690" y="585" fill="#67C23A" font-size="11">文件系统</text>
</svg> 